<svg id="Layer_1" data-name="Layer 1" xmlns="http://www.w3.org/2000/svg" viewBox="0 0 324.66 437.65"><defs><style>.cls-1{fill:#fff;}.cls-2{fill:#fff;}</style></defs><title>Artboard 1</title><path class="cls-1" d="M142.69,306.77h-6.06a.28.28,0,0,0-.28.28v3a.28.28,0,0,0,.28.28H139V314a7.16,7.16,0,0,1-2,.18c-1.73,0-4.15-.63-4.15-5.95s2.52-6,4.88-6a9.58,9.58,0,0,1,3.49.53.29.29,0,0,0,.34-.28l.68-2.86a.26.26,0,0,0-.11-.22c-.23-.16-1.62-.94-5.13-.94-4,0-8.19,1.72-8.19,10s4.75,9.5,8.75,9.5a9.85,9.85,0,0,0,5.32-1.42.24.24,0,0,0,.09-.21v-9.24A.28.28,0,0,0,142.69,306.77Z"/><path class="cls-1" d="M173.92,299.42a.28.28,0,0,0-.28-.28h-3.41a.28.28,0,0,0-.28.28V306h-5.32v-6.59a.28.28,0,0,0-.28-.28h-3.41a.28.28,0,0,0-.28.28v17.85a.28.28,0,0,0,.28.29h3.41a.28.28,0,0,0,.28-.29v-7.64h5.32v7.64a.28.28,0,0,0,.28.29h3.42a.28.28,0,0,0,.28-.29Z"/><ellipse class="cls-1" cx="146.93" cy="301.76" rx="2.2" ry="2.22"/><path class="cls-1" d="M148.89,313.5v-8.24a.28.28,0,0,0-.28-.28h-3.4a.33.33,0,0,0-.3.32v11.8c0,.35.22.45.5.45h3.06c.34,0,.42-.17.42-.46Z"/><path class="cls-1" d="M186.88,305H183.5a.28.28,0,0,0-.28.29V314a3.82,3.82,0,0,1-2.08.63c-1.22,0-1.54-.55-1.54-1.75v-7.63a.28.28,0,0,0-.28-.29h-3.44a.28.28,0,0,0-.28.29v8.21c0,3.55,2,4.42,4.7,4.42a7.93,7.93,0,0,0,4-1.23,7.17,7.17,0,0,0,.12.73.3.3,0,0,0,.25.15h2.19a.28.28,0,0,0,.28-.29v-12A.28.28,0,0,0,186.88,305Z"/><path class="cls-1" d="M196.13,304.61a6.36,6.36,0,0,0-3.23.86v-6a.28.28,0,0,0-.28-.28H189.2a.28.28,0,0,0-.28.28v17.85a.28.28,0,0,0,.28.29h2.37a.28.28,0,0,0,.25-.15,5.56,5.56,0,0,0,.14-.82,6.12,6.12,0,0,0,4,1.33c3.11,0,4.89-1.58,4.89-7.08S198.06,304.61,196.13,304.61Zm-1.34,10.06a4.06,4.06,0,0,1-2-.57v-5.65a4.51,4.51,0,0,1,1.75-.57c1.22-.11,2.39.26,2.39,3.17C197,314.11,196.44,314.71,194.8,314.66Z"/><path class="cls-1" d="M158.69,305h-2.56V301.6c0-.13-.07-.19-.21-.19h-3.49c-.14,0-.21.06-.21.19v3.49l-1.87.46a.28.28,0,0,0-.2.27V308a.28.28,0,0,0,.28.29h1.79v5.28c0,3.92,2.75,4.31,4.61,4.31a7.78,7.78,0,0,0,2-.33.26.26,0,0,0,.16-.26v-2.41a.29.29,0,0,0-.28-.28c-.15,0-.53.06-.92.06-1.26,0-1.68-.58-1.68-1.34s0-5,0-5h2.56A.28.28,0,0,0,159,308v-2.75A.28.28,0,0,0,158.69,305Z"/><path class="cls-1" d="M77.33,351.37H64.16v14.24H56.71v-34.9h22v6.79H64.16v7.21H77.33Z"/><path class="cls-1" d="M84.5,365.61v-34.9h7.45v34.9Z"/><path class="cls-1" d="M120,350.91H106.51v7.91h14.8v6.79H99.06v-34.9h22.25v6.79h-14.8v6.75H120Z"/><path class="cls-1" d="M134.9,358.82H149v6.79H127.46v-34.9h7.45Z"/><path class="cls-1" d="M154,365.61v-34.9h11.31c11.82,0,14.89,7.54,14.89,17.45s-3.07,17.45-14.89,17.45Zm7.45-6.79h4c5.44,0,7-3.91,7-10.66s-1.58-10.66-7-10.66h-4Z"/><path class="cls-1" d="M192.38,365.61v-34.9h11.31c11.82,0,14.89,7.54,14.89,17.45s-3.07,17.45-14.89,17.45Zm7.45-6.79h4c5.44,0,7-3.91,7-10.66s-1.58-10.66-7-10.66h-4Z"/><path class="cls-1" d="M220.73,365.61l9.68-35.09H239l9.68,35.09h-7.91l-1.63-7.17h-8.84l-1.63,7.17Zm11-13.08h6l-3-13.22Z"/><path class="cls-1" d="M264.43,352.07v13.54h-7.54V352.07l-11.08-21.36h8.52l6.33,14.57L267,330.71h8.52Z"/><path class="cls-1" d="M64.39,170.86a3.25,3.25,0,0,1-3.2-2.65l0-.17a3,3,0,0,1,0-.32A102.24,102.24,0,0,1,261,130.1a3.25,3.25,0,0,1-.06,2.37h0a3.25,3.25,0,0,1-5.3,1,28.62,28.62,0,0,0-43.18,8.25,3.25,3.25,0,0,1-5,1,28.61,28.61,0,0,0-43.36,8.11,3.25,3.25,0,0,1-5,1,28.61,28.61,0,0,0-43.36,8.1,3.25,3.25,0,0,1-5,1,28.61,28.61,0,0,0-43.39,8.16A3.25,3.25,0,0,1,64.39,170.86ZM163.05,63.33a95.78,95.78,0,0,0-95.81,94.9,35,35,0,0,1,18.59-9.8,34.53,34.53,0,0,1,26,5.29,35.29,35.29,0,0,1,48.4-9.1,35.29,35.29,0,0,1,48.4-9.1A34.53,34.53,0,0,1,231,121.12a35,35,0,0,1,20.85,2.37,95.8,95.8,0,0,0-88.82-60.16Z"/><path class="cls-1" d="M187.23,233.77a16.3,16.3,0,0,1-16-13.27l-.13-.69L158,150a3.25,3.25,0,1,1,6.39-1.2l13.26,70.49a9.78,9.78,0,1,0,19.21-3.61,3.25,3.25,0,0,1,6.39-1.2,16.28,16.28,0,0,1-16,19.28Z"/><path class="cls-1" d="M112.78,161.52a3,3,0,0,1-2.93-2.36,129.56,129.56,0,0,1-1.44-37.77c3-27.51,14.94-49,34.61-62.09a3,3,0,1,1,3.33,5c-44,29.3-30.78,93-30.64,93.59a3,3,0,0,1-2.94,3.64Z"/><path class="cls-1" d="M209.55,143.57a3.25,3.25,0,0,1-3.21-2.74c-.1-.64-10.92-64.58-62.35-75.86a3.25,3.25,0,0,1,1.39-6.35c23.16,5.08,42.17,20.79,55,45.41a129.87,129.87,0,0,1,12.41,35.78,3.25,3.25,0,0,1-2.7,3.72A3.33,3.33,0,0,1,209.55,143.57Z"/><path class="cls-1" d="M144.46,65.09a3.25,3.25,0,0,1-3.19-2.64l-2.65-13.9A3.25,3.25,0,0,1,145,47.33l2.65,13.9a3.25,3.25,0,0,1-3.2,3.86Z"/><path class="cls-2" d="M265.22,161.62a3.22,3.22,0,0,0,0-.46c0-2.33,0-4.67-.08-7a3.25,3.25,0,1,0-6.49.32c.06,1.3.09,2.6.1,3.9H218a19.88,19.88,0,0,0,0,39.76h8.92a4.56,4.56,0,0,1,4.55,4.55v6.47a3.14,3.14,0,0,0,.05.59,19.69,19.69,0,0,0,4.11,11.5,95.11,95.11,0,0,1-94.79,30.88,19.58,19.58,0,0,0-12.48-34.67h-19a2.78,2.78,0,0,1-2.38-2.12v-8.11a16.71,16.71,0,0,0-31.13-8.47,94.68,94.68,0,0,1-3.66-9.24,3.25,3.25,0,1,0-6.17,2.06,102.24,102.24,0,0,0,64.06,64.29,3.23,3.23,0,0,0,.49.16,102.21,102.21,0,0,0,134.53-93.75A3.27,3.27,0,0,0,265.22,161.62ZM80.07,206.88a10.22,10.22,0,0,1,20.44.34v8.41a3.24,3.24,0,0,0,0,.51,9.26,9.26,0,0,0,8.43,7.8h19.37a13.08,13.08,0,0,1,5.85,24.78,11.11,11.11,0,0,1-2.37.75A96.24,96.24,0,0,1,80.07,206.88Zm159.78,9a13.28,13.28,0,0,1-1.85-6.77,3.17,3.17,0,0,0,0-.54v-5.93a11.07,11.07,0,0,0-11.05-11.05H218a13.38,13.38,0,0,1,0-26.76h40.53A95.46,95.46,0,0,1,239.86,215.92Z"/><path class="cls-2" d="M127.69,203.83a14.18,14.18,0,1,0-14.18-14.18A14.2,14.2,0,0,0,127.69,203.83Zm0-21.87a7.68,7.68,0,1,1-7.68,7.68A7.69,7.69,0,0,1,127.69,182Z"/></svg>
