<?xml version="1.0" encoding="utf-8"?>
<!-- Generator: Adobe Illustrator 21.0.2, SVG Export Plug-In . SVG Version: 6.00 Build 0)  -->
<svg version="1.1" id="Layer_1" xmlns="http://www.w3.org/2000/svg" xmlns:xlink="http://www.w3.org/1999/xlink" x="0px" y="0px"
	 viewBox="0 0 324.7 300" style="enable-background:new 0 0 324.7 300;" xml:space="preserve">
<style type="text/css">
	.st0{fill:#231F20;}
	.st1{fill:#A549F8;}
	.st2{fill:#C9A6F7;}
	.st3{fill:#FFFFFF;}
</style>
<rect x="-366.2" y="-68.8" class="st0" width="324.7" height="437.6"/>
<path class="st1" d="M-1059.2,167.9c-0.2,0-0.3,0-0.5,0c-1.4-0.2-2.5-1.3-2.7-2.6l0-0.2c0-0.1,0-0.2,0-0.3
	c-2.2-25.1,5-50.1,20.3-70.3c15.4-20.3,37.6-34.1,62.7-38.9c25.1-4.7,50.9,0.1,72.6,13.5c21.5,13.3,37.2,33.9,44.3,58
	c0.3,0.8,0.3,1.6-0.1,2.4l0,0c-0.5,1.3-1.8,2.1-3.2,2c-0.8,0-1.6-0.4-2.1-1c-6.3-5.3-15-7.6-23.4-6c-8.5,1.6-15.9,6.9-19.7,14.2
	c-0.3,0.5-0.7,1-1.2,1.3c-1.2,0.8-2.8,0.7-3.9-0.3c-6.3-5.5-15.1-7.8-23.6-6.2c-8.5,1.6-15.9,6.9-19.7,14.3
	c-0.3,0.6-0.8,1.1-1.3,1.4c-1.2,0.6-2.7,0.5-3.7-0.4c-6.3-5.5-15.1-7.8-23.6-6.2c-8.5,1.6-15.9,6.9-19.7,14.2
	c-0.3,0.5-0.7,1-1.2,1.3c-1.2,0.8-2.8,0.7-3.9-0.3c-6.3-5.5-15.1-7.8-23.6-6.2c-8.5,1.6-15.9,7-19.8,14.3
	C-1056.9,167.2-1058,167.9-1059.2,167.9z M-960.6,60.3c-5.9,0-11.9,0.5-17.8,1.7c-23.5,4.4-44.3,17.3-58.7,36.4
	c-12.5,16.5-19.2,36.4-19.4,56.9c4.9-5,11.3-8.4,18.6-9.8c9.3-1.7,18.6,0.2,26,5.3c5.1-7.5,13-12.6,22.3-14.4
	c9.3-1.7,18.6,0.2,26,5.3c5.1-7.5,13-12.6,22.3-14.4c9.3-1.7,18.6,0.2,26,5.3c5.1-7.5,13-12.6,22.3-14.4c7.2-1.4,14.5-0.5,20.9,2.4
	c-7.6-18.9-21-35-38.6-45.9C-925.6,65.2-942.9,60.3-960.6,60.3z"/>
<path class="st1" d="M-936.4,230.8c-7.7,0-14.5-5.5-16-13.3l-0.1-0.7l-13.1-69.8c-0.3-1.8,0.8-3.5,2.6-3.8c1.8-0.3,3.5,0.8,3.8,2.6
	l13.3,70.5c1,5.3,6.1,8.8,11.4,7.8c5.3-1,8.8-6.1,7.8-11.4c-0.3-1.8,0.8-3.5,2.6-3.8c1.8-0.3,3.5,0.8,3.8,2.6
	c1.7,8.8-4.2,17.3-13,19C-934.4,230.7-935.4,230.8-936.4,230.8z"/>
<path class="st1" d="M-1010.8,158.5c-1.4,0-2.6-1-2.9-2.4c-0.2-0.7-3.7-17.2-1.4-37.8c3-27.5,14.9-49,34.6-62.1
	c1.4-0.9,3.2-0.5,4.2,0.8c0.9,1.4,0.5,3.2-0.8,4.2c-44,29.3-30.8,93-30.6,93.6c0.3,1.6-0.7,3.2-2.3,3.6
	C-1010.4,158.5-1010.6,158.5-1010.8,158.5z"/>
<path class="st1" d="M-914.1,140.6c-1.6,0-2.9-1.1-3.2-2.7c-0.1-0.6-10.9-64.6-62.4-75.9c-1.8-0.4-2.9-2.1-2.5-3.9
	c0.4-1.8,2.1-2.9,3.9-2.5c23.2,5.1,42.2,20.8,55,45.4c9.6,18.4,12.3,35.1,12.4,35.8c0.3,1.8-0.9,3.4-2.7,3.7
	C-913.7,140.6-913.9,140.6-914.1,140.6z"/>
<path class="st1" d="M-979.2,62.1c-1.5,0-2.9-1.1-3.2-2.6l-2.6-13.9c-0.3-1.8,0.8-3.5,2.6-3.8c1.8-0.3,3.5,0.8,3.8,2.6l2.6,13.9
	c0.3,1.8-0.8,3.5-2.6,3.8C-978.8,62.1-979,62.1-979.2,62.1z"/>
<g>
	<path class="st2" d="M-858.4,158.6c0-0.2,0-0.3,0-0.5c0-2.3,0-4.7-0.1-7c-0.1-1.8-1.6-3.2-3.4-3.1c-1.8,0.1-3.2,1.6-3.1,3.4
		c0.1,1.3,0.1,2.6,0.1,3.9h-40.7c-11,0-19.9,8.9-19.9,19.9s8.9,19.9,19.9,19.9h8.9c2.5,0,4.6,2,4.6,4.6v6.5c0,0.2,0,0.4,0.1,0.6
		c0.1,4.2,1.6,8.2,4.1,11.5c-13.8,16.1-32.9,27.8-55,31.9c-13.5,2.5-27.1,2-39.8-1c4.5-3.7,7.1-9.1,7.1-15.1
		c0-10.8-8.8-19.6-19.6-19.6h-19c-1.2-0.1-2.1-1-2.4-2.1l0-8.1c0-9.2-7.5-16.7-16.7-16.7c-6.1,0-11.5,3.3-14.4,8.3
		c-1.4-3-2.6-6.1-3.7-9.2c-0.6-1.7-2.4-2.6-4.1-2.1c-1.7,0.6-2.6,2.4-2.1,4.1c7.8,23.2,23.7,42.9,44.8,55.4
		c6.1,3.6,12.6,6.6,19.2,8.8c0.2,0.1,0.3,0.1,0.5,0.2c10.4,3.5,21.3,5.3,32.3,5.3c6.3,0,12.6-0.6,18.9-1.8
		c24.4-4.6,46.3-17.9,61.6-37.4c13.5-17.2,21-38.2,21.7-59.8C-858.4,159.1-858.4,158.9-858.4,158.6z M-1043.6,203.9
		c0.2-5.5,4.7-9.9,10.2-9.9c5.6,0,10.2,4.6,10.2,10.2l0,8.4c0,0.2,0,0.3,0,0.5c0.7,4.2,4.1,7.5,8.4,7.8c0.1,0,0.2,0,0.3,0h19.1
		c7.2,0,13.1,5.9,13.1,13.1c0,4.9-2.7,9.4-7.2,11.7c0,0-0.8,0.4-2.4,0.7C-1013.3,239-1031.9,224-1043.6,203.9z M-883.8,212.9
		c-1.2-2-1.8-4.3-1.8-6.8c0-0.2,0-0.4,0-0.5v-5.9c0-6.1-5-11.1-11.1-11.1h-8.9c-7.4,0-13.4-6-13.4-13.4s6-13.4,13.4-13.4h40.5
		C-866.2,180.7-873,198.3-883.8,212.9z"/>
	<path class="st2" d="M-995.9,200.8c7.8,0,14.2-6.4,14.2-14.2s-6.4-14.2-14.2-14.2s-14.2,6.4-14.2,14.2S-1003.8,200.8-995.9,200.8z
		 M-995.9,179c4.2,0,7.7,3.4,7.7,7.7c0,4.2-3.4,7.7-7.7,7.7c-4.2,0-7.7-3.4-7.7-7.7C-1003.6,182.4-1000.2,179-995.9,179z"/>
</g>
<path class="st1" d="M-680.5,165.9c-0.2,0-0.3,0-0.5,0c-1.4-0.2-2.5-1.3-2.7-2.6l0-0.2c0-0.1,0-0.2,0-0.3
	c-2.2-25.1,5-50.1,20.3-70.3c15.4-20.3,37.6-34.1,62.7-38.9c25.1-4.7,50.9,0.1,72.6,13.5c21.5,13.3,37.2,33.9,44.3,58
	c0.3,0.8,0.3,1.6-0.1,2.4l0,0c-0.5,1.3-1.8,2.1-3.2,2c-0.8,0-1.6-0.4-2.1-1c-6.3-5.3-15-7.6-23.4-6c-8.5,1.6-15.9,6.9-19.7,14.2
	c-0.3,0.5-0.7,1-1.2,1.3c-1.2,0.8-2.8,0.7-3.9-0.3c-6.3-5.5-15.1-7.8-23.6-6.2c-8.5,1.6-15.9,6.9-19.7,14.3
	c-0.3,0.6-0.8,1.1-1.3,1.4c-1.2,0.6-2.7,0.5-3.7-0.4c-6.3-5.5-15.1-7.8-23.6-6.2c-8.5,1.6-15.9,6.9-19.7,14.2
	c-0.3,0.5-0.7,1-1.2,1.3c-1.2,0.8-2.8,0.7-3.9-0.3c-6.3-5.5-15.1-7.8-23.6-6.2c-8.5,1.6-15.9,7-19.8,14.3
	C-678.2,165.3-679.3,165.9-680.5,165.9z M-581.9,58.4c-5.9,0-11.9,0.5-17.8,1.7c-23.5,4.4-44.3,17.3-58.7,36.4
	c-12.5,16.5-19.2,36.4-19.4,56.9c4.9-5,11.3-8.4,18.6-9.8c9.3-1.7,18.6,0.2,26,5.3c5.1-7.5,13-12.6,22.3-14.4
	c9.3-1.7,18.6,0.2,26,5.3c5.1-7.5,13-12.6,22.3-14.4c9.3-1.7,18.6,0.2,26,5.3c5.1-7.5,13-12.6,22.3-14.4c7.2-1.4,14.5-0.5,20.9,2.4
	c-7.6-18.9-21-35-38.6-45.9C-546.9,63.3-564.2,58.4-581.9,58.4z"/>
<path class="st1" d="M-557.7,228.8c-7.7,0-14.5-5.5-16-13.3l-0.1-0.7l-13.1-69.8c-0.3-1.8,0.8-3.5,2.6-3.8c1.8-0.3,3.5,0.8,3.8,2.6
	l13.3,70.5c1,5.3,6.1,8.8,11.4,7.8c5.3-1,8.8-6.1,7.8-11.4c-0.3-1.8,0.8-3.5,2.6-3.8c1.8-0.3,3.5,0.8,3.8,2.6
	c1.7,8.8-4.2,17.3-13,19C-555.7,228.8-556.7,228.8-557.7,228.8z"/>
<path class="st1" d="M-632.1,156.6c-1.4,0-2.6-1-2.9-2.4c-0.2-0.7-3.7-17.2-1.4-37.8c3-27.5,14.9-49,34.6-62.1
	c1.4-0.9,3.2-0.5,4.2,0.8c0.9,1.4,0.5,3.2-0.8,4.2c-44,29.3-30.8,93-30.6,93.6c0.3,1.6-0.7,3.2-2.3,3.6
	C-631.7,156.6-631.9,156.6-632.1,156.6z"/>
<path class="st1" d="M-535.4,138.6c-1.6,0-2.9-1.1-3.2-2.7c-0.1-0.6-10.9-64.6-62.4-75.9c-1.8-0.4-2.9-2.1-2.5-3.9
	c0.4-1.8,2.1-2.9,3.9-2.5c23.2,5.1,42.2,20.8,55,45.4c9.6,18.4,12.3,35.1,12.4,35.8c0.3,1.8-0.9,3.4-2.7,3.7
	C-535,138.6-535.2,138.6-535.4,138.6z"/>
<path class="st1" d="M-600.4,60.2c-1.5,0-2.9-1.1-3.2-2.6l-2.6-13.9c-0.3-1.8,0.8-3.5,2.6-3.8c1.8-0.3,3.5,0.8,3.8,2.6l2.6,13.9
	c0.3,1.8-0.8,3.5-2.6,3.8C-600,60.1-600.2,60.2-600.4,60.2z"/>
<g>
	<path class="st2" d="M-479.7,156.7c0-0.2,0-0.3,0-0.5c0-2.3,0-4.7-0.1-7c-0.1-1.8-1.6-3.2-3.4-3.1c-1.8,0.1-3.2,1.6-3.1,3.4
		c0.1,1.3,0.1,2.6,0.1,3.9h-40.7c-11,0-19.9,8.9-19.9,19.9s8.9,19.9,19.9,19.9h8.9c2.5,0,4.6,2,4.6,4.6v6.5c0,0.2,0,0.4,0.1,0.6
		c0.1,4.2,1.6,8.2,4.1,11.5c-13.8,16.1-32.9,27.8-55,31.9c-13.5,2.5-27.1,2-39.8-1c4.5-3.7,7.1-9.1,7.1-15.1
		c0-10.8-8.8-19.6-19.6-19.6h-19c-1.2-0.1-2.1-1-2.4-2.1l0-8.1c0-9.2-7.5-16.7-16.7-16.7c-6.1,0-11.5,3.3-14.4,8.3
		c-1.4-3-2.6-6.1-3.7-9.2c-0.6-1.7-2.4-2.6-4.1-2.1c-1.7,0.6-2.6,2.4-2.1,4.1c7.8,23.2,23.7,42.9,44.8,55.4
		c6.1,3.6,12.6,6.6,19.2,8.8c0.2,0.1,0.3,0.1,0.5,0.2c10.4,3.5,21.3,5.3,32.3,5.3c6.3,0,12.6-0.6,18.9-1.8
		c24.4-4.6,46.3-17.9,61.6-37.4c13.5-17.2,21-38.2,21.7-59.8C-479.7,157.1-479.7,156.9-479.7,156.7z M-664.8,202
		c0.2-5.5,4.7-9.9,10.2-9.9c5.6,0,10.2,4.6,10.2,10.2l0,8.4c0,0.2,0,0.3,0,0.5c0.7,4.2,4.1,7.5,8.4,7.8c0.1,0,0.2,0,0.3,0h19.1
		c7.2,0,13.1,5.9,13.1,13.1c0,4.9-2.7,9.4-7.2,11.7c0,0-0.8,0.4-2.4,0.7C-634.6,237.1-653.2,222.1-664.8,202z M-505.1,211
		c-1.2-2-1.8-4.3-1.8-6.8c0-0.2,0-0.4,0-0.5v-5.9c0-6.1-5-11.1-11.1-11.1h-8.9c-7.4,0-13.4-6-13.4-13.4s6-13.4,13.4-13.4h40.5
		C-487.5,178.8-494.2,196.4-505.1,211z"/>
	<path class="st2" d="M-617.2,198.9c7.8,0,14.2-6.4,14.2-14.2s-6.4-14.2-14.2-14.2s-14.2,6.4-14.2,14.2S-625,198.9-617.2,198.9z
		 M-617.2,177c4.2,0,7.7,3.4,7.7,7.7c0,4.2-3.4,7.7-7.7,7.7c-4.2,0-7.7-3.4-7.7-7.7C-624.9,180.5-621.5,177-617.2,177z"/>
</g>
<path class="st3" d="M-292.7,167.9c-0.2,0-0.3,0-0.5,0c-1.4-0.2-2.5-1.3-2.7-2.6l0-0.2c0-0.1,0-0.2,0-0.3
	c-2.2-25.1,5-50.1,20.3-70.3c15.4-20.3,37.6-34.1,62.7-38.9c25.1-4.7,50.9,0.1,72.6,13.5c21.5,13.3,37.2,33.9,44.3,58
	c0.3,0.8,0.3,1.6-0.1,2.4l0,0c-0.5,1.3-1.8,2.1-3.2,2c-0.8,0-1.6-0.4-2.1-1c-6.3-5.3-15-7.6-23.4-6c-8.5,1.6-15.9,6.9-19.7,14.2
	c-0.3,0.5-0.7,1-1.2,1.3c-1.2,0.8-2.8,0.7-3.9-0.3c-6.3-5.5-15.1-7.8-23.6-6.2c-8.5,1.6-15.9,6.9-19.7,14.3
	c-0.3,0.6-0.8,1.1-1.3,1.4c-1.2,0.6-2.7,0.5-3.7-0.4c-6.3-5.5-15.1-7.8-23.6-6.2c-8.5,1.6-15.9,6.9-19.7,14.2
	c-0.3,0.5-0.7,1-1.2,1.3c-1.2,0.8-2.8,0.7-3.9-0.3c-6.3-5.5-15.1-7.8-23.6-6.2c-8.5,1.6-15.9,7-19.8,14.3
	C-290.4,167.2-291.5,167.9-292.7,167.9z M-194,60.3c-5.9,0-11.9,0.5-17.8,1.7c-23.5,4.4-44.3,17.3-58.7,36.4
	c-12.5,16.5-19.2,36.4-19.4,56.9c4.9-5,11.3-8.4,18.6-9.8c9.3-1.7,18.6,0.2,26,5.3c5.1-7.5,13-12.6,22.3-14.4
	c9.3-1.7,18.6,0.2,26,5.3c5.1-7.5,13-12.6,22.3-14.4c9.3-1.7,18.6,0.2,26,5.3c5.1-7.5,13-12.6,22.3-14.4c7.2-1.4,14.5-0.5,20.9,2.4
	c-7.6-18.9-21-35-38.6-45.9C-159,65.2-176.4,60.3-194,60.3z"/>
<path class="st3" d="M-169.8,230.8c-7.7,0-14.5-5.5-16-13.3l-0.1-0.7l-13.1-69.8c-0.3-1.8,0.8-3.5,2.6-3.8c1.8-0.3,3.5,0.8,3.8,2.6
	l13.3,70.5c1,5.3,6.1,8.8,11.4,7.8c5.3-1,8.8-6.1,7.8-11.4c-0.3-1.8,0.8-3.5,2.6-3.8c1.8-0.3,3.5,0.8,3.8,2.6
	c1.7,8.8-4.2,17.3-13,19C-167.8,230.7-168.8,230.8-169.8,230.8z"/>
<path class="st3" d="M-244.3,158.5c-1.4,0-2.6-1-2.9-2.4c-0.2-0.7-3.7-17.2-1.4-37.8c3-27.5,14.9-49,34.6-62.1
	c1.4-0.9,3.2-0.5,4.2,0.8c0.9,1.4,0.5,3.2-0.8,4.2c-44,29.3-30.8,93-30.6,93.6c0.3,1.6-0.7,3.2-2.3,3.6
	C-243.8,158.5-244.1,158.5-244.3,158.5z"/>
<path class="st3" d="M-147.5,140.6c-1.6,0-2.9-1.1-3.2-2.7c-0.1-0.6-10.9-64.6-62.4-75.9c-1.8-0.4-2.9-2.1-2.5-3.9
	c0.4-1.8,2.1-2.9,3.9-2.5c23.2,5.1,42.2,20.8,55,45.4c9.6,18.4,12.3,35.1,12.4,35.8c0.3,1.8-0.9,3.4-2.7,3.7
	C-147.2,140.6-147.3,140.6-147.5,140.6z"/>
<path class="st3" d="M-212.6,62.1c-1.5,0-2.9-1.1-3.2-2.6l-2.6-13.9c-0.3-1.8,0.8-3.5,2.6-3.8c1.8-0.3,3.5,0.8,3.8,2.6l2.6,13.9
	c0.3,1.8-0.8,3.5-2.6,3.8C-212.2,62.1-212.4,62.1-212.6,62.1z"/>
<g>
	<path class="st3" d="M-91.8,158.6c0-0.2,0-0.3,0-0.5c0-2.3,0-4.7-0.1-7c-0.1-1.8-1.6-3.2-3.4-3.1c-1.8,0.1-3.2,1.6-3.1,3.4
		c0.1,1.3,0.1,2.6,0.1,3.9h-40.7c-11,0-19.9,8.9-19.9,19.9s8.9,19.9,19.9,19.9h8.9c2.5,0,4.6,2,4.6,4.6v6.5c0,0.2,0,0.4,0.1,0.6
		c0.1,4.2,1.6,8.2,4.1,11.5c-13.8,16.1-32.9,27.8-55,31.9c-13.5,2.5-27.1,2-39.8-1c4.5-3.7,7.1-9.1,7.1-15.1
		c0-10.8-8.8-19.6-19.6-19.6h-19c-1.2-0.1-2.1-1-2.4-2.1l0-8.1c0-9.2-7.5-16.7-16.7-16.7c-6.1,0-11.5,3.3-14.4,8.3
		c-1.4-3-2.6-6.1-3.7-9.2c-0.6-1.7-2.4-2.6-4.1-2.1c-1.7,0.6-2.6,2.4-2.1,4.1c7.8,23.2,23.7,42.9,44.8,55.4
		c6.1,3.6,12.6,6.6,19.2,8.8c0.2,0.1,0.3,0.1,0.5,0.2c10.4,3.5,21.3,5.3,32.3,5.3c6.3,0,12.6-0.6,18.9-1.8
		c24.4-4.6,46.3-17.9,61.6-37.4c13.5-17.2,21-38.2,21.7-59.8C-91.9,159.1-91.8,158.9-91.8,158.6z M-277,203.9
		c0.2-5.5,4.7-9.9,10.2-9.9c5.6,0,10.2,4.6,10.2,10.2l0,8.4c0,0.2,0,0.3,0,0.5c0.7,4.2,4.1,7.5,8.4,7.8c0.1,0,0.2,0,0.3,0h19.1
		c7.2,0,13.1,5.9,13.1,13.1c0,4.9-2.7,9.4-7.2,11.7c0,0-0.8,0.4-2.4,0.7C-246.7,239-265.3,224-277,203.9z M-117.2,212.9
		c-1.2-2-1.8-4.3-1.8-6.8c0-0.2,0-0.4,0-0.5v-5.9c0-6.1-5-11.1-11.1-11.1h-8.9c-7.4,0-13.4-6-13.4-13.4s6-13.4,13.4-13.4h40.5
		C-99.7,180.7-106.4,198.3-117.2,212.9z"/>
	<path class="st3" d="M-229.4,200.8c7.8,0,14.2-6.4,14.2-14.2s-6.4-14.2-14.2-14.2s-14.2,6.4-14.2,14.2S-237.2,200.8-229.4,200.8z
		 M-229.4,179c4.2,0,7.7,3.4,7.7,7.7c0,4.2-3.4,7.7-7.7,7.7c-4.2,0-7.7-3.4-7.7-7.7C-237,182.4-233.6,179-229.4,179z"/>
</g>
<path class="st1" d="M78.5,164c-0.2,0-0.3,0-0.5,0c-1.4-0.2-2.5-1.3-2.7-2.6l0-0.2c0-0.1,0-0.2,0-0.3c-2.2-25.1,5-50.1,20.3-70.3
	c15.4-20.3,37.6-34.1,62.7-38.9c25.1-4.7,50.9,0.1,72.6,13.5c21.5,13.3,37.2,33.9,44.3,58c0.3,0.8,0.3,1.6-0.1,2.4l0,0
	c-0.5,1.3-1.8,2.1-3.2,2c-0.8,0-1.6-0.4-2.1-1c-6.3-5.3-15-7.6-23.4-6c-8.5,1.6-15.9,6.9-19.7,14.2c-0.3,0.5-0.7,1-1.2,1.3
	c-1.2,0.8-2.8,0.7-3.9-0.3c-6.3-5.5-15.1-7.8-23.6-6.2c-8.5,1.6-15.9,6.9-19.7,14.3c-0.3,0.6-0.8,1.1-1.3,1.4
	c-1.2,0.6-2.7,0.5-3.7-0.4c-6.3-5.5-15.1-7.8-23.6-6.2c-8.5,1.6-15.9,6.9-19.7,14.2c-0.3,0.5-0.7,1-1.2,1.3
	c-1.2,0.8-2.8,0.7-3.9-0.3c-6.3-5.5-15.1-7.8-23.6-6.2c-8.5,1.6-15.9,7-19.8,14.3C80.8,163.3,79.7,164,78.5,164z M177.2,56.5
	c-5.9,0-11.9,0.5-17.8,1.7c-23.5,4.4-44.3,17.3-58.7,36.4c-12.5,16.5-19.2,36.4-19.4,56.9c4.9-5,11.3-8.4,18.6-9.8
	c9.3-1.7,18.6,0.2,26,5.3c5.1-7.5,13-12.6,22.3-14.4c9.3-1.7,18.6,0.2,26,5.3c5.1-7.5,13-12.6,22.3-14.4c9.3-1.7,18.6,0.2,26,5.3
	c5.1-7.5,13-12.6,22.3-14.4c7.2-1.4,14.5-0.5,20.9,2.4c-7.6-18.9-21-35-38.6-45.9C212.2,61.3,194.8,56.5,177.2,56.5z"/>
<path class="st1" d="M201.4,226.9c-7.7,0-14.5-5.5-16-13.3l-0.1-0.7l-13.1-69.8c-0.3-1.8,0.8-3.5,2.6-3.8c1.8-0.3,3.5,0.8,3.8,2.6
	l13.3,70.5c1,5.3,6.1,8.8,11.4,7.8c5.3-1,8.8-6.1,7.8-11.4c-0.3-1.8,0.8-3.5,2.6-3.8c1.8-0.3,3.5,0.8,3.8,2.6
	c1.7,8.8-4.2,17.3-13,19C203.4,226.8,202.4,226.9,201.4,226.9z"/>
<path class="st1" d="M126.9,154.7c-1.4,0-2.6-1-2.9-2.4c-0.2-0.7-3.7-17.2-1.4-37.8c3-27.5,14.9-49,34.6-62.1
	c1.4-0.9,3.2-0.5,4.2,0.8c0.9,1.4,0.5,3.2-0.8,4.2c-44,29.3-30.8,93-30.6,93.6c0.3,1.6-0.7,3.2-2.3,3.6
	C127.3,154.6,127.1,154.7,126.9,154.7z"/>
<path class="st1" d="M223.7,136.7c-1.6,0-2.9-1.1-3.2-2.7c-0.1-0.6-10.9-64.6-62.4-75.9c-1.8-0.4-2.9-2.1-2.5-3.9
	c0.4-1.8,2.1-2.9,3.9-2.5c23.2,5.1,42.2,20.8,55,45.4c9.6,18.4,12.3,35.1,12.4,35.8c0.3,1.8-0.9,3.4-2.7,3.7
	C224,136.7,223.9,136.7,223.7,136.7z"/>
<path class="st1" d="M158.6,58.2c-1.5,0-2.9-1.1-3.2-2.6l-2.6-13.9c-0.3-1.8,0.8-3.5,2.6-3.8c1.8-0.3,3.5,0.8,3.8,2.6l2.6,13.9
	c0.3,1.8-0.8,3.5-2.6,3.8C159,58.2,158.8,58.2,158.6,58.2z"/>
<g>
	<path class="st2" d="M279.4,154.8c0-0.2,0-0.3,0-0.5c0-2.3,0-4.7-0.1-7c-0.1-1.8-1.6-3.2-3.4-3.1c-1.8,0.1-3.2,1.6-3.1,3.4
		c0.1,1.3,0.1,2.6,0.1,3.9h-40.7c-11,0-19.9,8.9-19.9,19.9s8.9,19.9,19.9,19.9h8.9c2.5,0,4.6,2,4.6,4.6v6.5c0,0.2,0,0.4,0.1,0.6
		c0.1,4.2,1.6,8.2,4.1,11.5c-13.8,16.1-32.9,27.8-55,31.9c-13.5,2.5-27.1,2-39.8-1c4.5-3.7,7.1-9.1,7.1-15.1
		c0-10.8-8.8-19.6-19.6-19.6h-19c-1.2-0.1-2.1-1-2.4-2.1l0-8.1c0-9.2-7.5-16.7-16.7-16.7c-6.1,0-11.5,3.3-14.4,8.3
		c-1.4-3-2.6-6.1-3.7-9.2c-0.6-1.7-2.4-2.6-4.1-2.1c-1.7,0.6-2.6,2.4-2.1,4.1c7.8,23.2,23.7,42.9,44.8,55.4
		c6.1,3.6,12.6,6.6,19.2,8.8c0.2,0.1,0.3,0.1,0.5,0.2c10.4,3.5,21.3,5.3,32.3,5.3c6.3,0,12.6-0.6,18.9-1.8
		c24.4-4.6,46.3-17.9,61.6-37.4c13.5-17.2,21-38.2,21.7-59.8C279.3,155.2,279.4,155,279.4,154.8z M94.2,200
		c0.2-5.5,4.7-9.9,10.2-9.9c5.6,0,10.2,4.6,10.2,10.2l0,8.4c0,0.2,0,0.3,0,0.5c0.7,4.2,4.1,7.5,8.4,7.8c0.1,0,0.2,0,0.3,0h19.1
		c7.2,0,13.1,5.9,13.1,13.1c0,4.9-2.7,9.4-7.2,11.7c0,0-0.8,0.4-2.4,0.7C124.5,235.2,105.9,220.2,94.2,200z M254,209.1
		c-1.2-2-1.8-4.3-1.8-6.8c0-0.2,0-0.4,0-0.5v-5.9c0-6.1-5-11.1-11.1-11.1h-8.9c-7.4,0-13.4-6-13.4-13.4s6-13.4,13.4-13.4h40.5
		C271.5,176.8,264.8,194.5,254,209.1z"/>
	<path class="st2" d="M141.8,197c7.8,0,14.2-6.4,14.2-14.2s-6.4-14.2-14.2-14.2s-14.2,6.4-14.2,14.2S134,197,141.8,197z
		 M141.8,175.1c4.2,0,7.7,3.4,7.7,7.7c0,4.2-3.4,7.7-7.7,7.7c-4.2,0-7.7-3.4-7.7-7.7C134.1,178.6,137.6,175.1,141.8,175.1z"/>
</g>
</svg>
