<?xml version="1.0" standalone="no"?>
<!DOCTYPE svg PUBLIC "-//W3C//DTD SVG 20010904//EN"
 "http://www.w3.org/TR/2001/REC-SVG-20010904/DTD/svg10.dtd">
<svg version="1.0" xmlns="http://www.w3.org/2000/svg"
 width="700.000000pt" height="700.000000pt" viewBox="0 0 700.000000 700.000000"
 preserveAspectRatio="xMidYMid meet">
<metadata>
Created by potrace 1.11, written by Peter Selinger 2001-2013
</metadata>
<g transform="translate(0.000000,700.000000) scale(0.100000,-0.100000)"
fill="#000000" stroke="none">
<path d="M3609 6106 c-47 -23 -50 -49 -24 -186 29 -152 29 -150 6 -150 -29 0
-215 -57 -325 -101 -519 -203 -951 -583 -1225 -1077 -28 -50 -51 -94 -51 -96
0 -3 -16 -40 -36 -83 -80 -170 -147 -408 -183 -643 -15 -97 -19 -173 -17 -338
l1 -214 29 -25 c22 -18 35 -23 55 -18 36 9 48 21 92 91 40 62 110 135 164 170
17 10 32 22 35 26 11 14 137 67 201 83 97 26 242 23 339 -6 85 -25 182 -77
239 -128 26 -23 61 -27 91 -11 10 5 39 41 65 80 151 227 448 342 710 276 6 -2
24 -6 40 -11 51 -13 186 -87 200 -109 7 -12 16 -41 20 -66 8 -52 6 -37 39
-210 14 -74 27 -146 30 -160 2 -14 11 -63 21 -110 9 -47 23 -119 30 -160 8
-41 17 -88 20 -105 13 -66 47 -251 51 -275 3 -14 12 -61 20 -105 8 -44 17 -91
20 -105 3 -14 14 -72 24 -130 11 -58 22 -115 24 -126 2 -12 7 -39 10 -60 21
-128 125 -251 251 -295 183 -64 385 22 469 201 25 54 31 79 33 147 2 73 0 86
-20 108 -33 36 -69 41 -101 13 -24 -21 -27 -31 -30 -103 -4 -94 -20 -130 -78
-180 -134 -114 -339 -38 -372 138 -2 12 -9 49 -15 82 -6 33 -13 71 -16 85 -4
22 -15 79 -32 170 -2 14 -8 44 -14 68 -5 23 -12 59 -15 80 -3 20 -7 44 -9 52
-2 8 -7 29 -9 45 -6 34 -35 186 -66 350 -12 61 -25 133 -30 160 -10 60 -10 57
-59 310 -45 235 -46 227 60 333 235 237 613 263 875 61 52 -40 87 -48 115 -26
8 7 32 39 53 71 202 317 646 397 955 172 62 -45 86 -51 117 -31 45 29 47 55
10 168 -133 404 -415 819 -731 1072 -27 22 -61 50 -75 63 -35 31 -200 141
-287 190 -165 93 -336 163 -524 216 -174 48 -246 62 -432 81 -84 9 -343 10
-412 2 -27 -4 -75 -9 -105 -13 -30 -3 -58 -8 -62 -11 -5 -2 -8 2 -9 9 0 7 -2
20 -4 28 -2 8 -10 57 -19 108 -9 51 -21 103 -25 115 -17 45 -61 64 -102 43z
m860 -451 c310 -48 597 -159 860 -332 194 -127 302 -219 465 -396 95 -103 222
-285 298 -427 56 -105 102 -209 96 -215 -2 -3 -36 6 -74 19 -265 93 -592 20
-808 -179 -27 -25 -51 -45 -52 -45 -1 0 -6 15 -9 33 -44 199 -203 576 -335
788 -208 336 -456 574 -776 744 l-69 37 150 -6 c83 -3 197 -12 254 -21z m-609
-60 c25 -8 53 -18 64 -22 99 -33 332 -172 436 -260 246 -207 465 -521 615
-881 27 -65 94 -248 94 -257 0 -3 8 -30 17 -61 16 -57 14 -74 -8 -57 -50 38
-211 72 -340 71 -186 0 -333 -47 -484 -154 -59 -42 -184 -168 -184 -186 0 -4
-17 2 -37 15 -57 35 -150 73 -223 93 -74 19 -248 26 -331 13 -155 -25 -325
-108 -428 -209 l-40 -40 -6 33 c-12 65 -14 115 -15 287 0 204 4 271 30 435 27
173 29 178 66 310 90 312 247 575 464 777 45 43 102 91 126 107 42 27 45 28
91 15 26 -7 68 -20 93 -29z m-496 -77 c-16 -18 -35 -39 -43 -47 -32 -35 -149
-200 -183 -258 -154 -262 -258 -619 -285 -968 -14 -188 -6 -560 13 -610 8 -20
4 -19 -65 9 -112 45 -188 60 -316 60 -131 -1 -239 -23 -345 -73 -57 -26 -147
-80 -172 -103 -8 -7 -27 -24 -42 -38 l-28 -25 5 105 c34 618 328 1201 807
1597 99 82 236 175 335 228 39 21 75 41 80 45 9 7 199 90 235 103 32 12 33 6
4 -25z"/>
<path d="M6424 3632 c-39 -6 -55 -35 -57 -103 l-2 -64 -505 0 c-455 -1 -511
-3 -565 -19 -71 -21 -104 -39 -165 -86 -57 -44 -73 -63 -110 -125 -81 -136
-84 -307 -9 -456 28 -57 106 -137 170 -174 92 -54 148 -66 322 -69 85 -2 162
-8 174 -14 42 -23 53 -55 55 -163 2 -138 18 -217 61 -299 l36 -69 -97 -98
c-192 -195 -360 -320 -579 -432 -166 -85 -392 -169 -497 -185 -21 -4 -42 -8
-46 -11 -4 -2 -49 -11 -101 -20 -243 -40 -521 -39 -742 1 -45 8 -97 18 -115
21 l-32 6 44 47 c127 136 154 329 71 505 -63 132 -188 226 -335 252 -19 3
-146 7 -282 7 -308 1 -288 -9 -289 148 -1 129 -4 155 -25 218 -64 193 -290
306 -483 240 -78 -26 -138 -66 -181 -120 -17 -22 -35 -40 -39 -40 -4 0 -22 40
-40 90 -56 147 -84 178 -144 158 -58 -21 -60 -54 -7 -193 259 -680 847 -1221
1548 -1426 59 -17 116 -33 127 -35 87 -19 177 -35 215 -40 25 -3 72 -9 105
-13 64 -9 437 -7 495 3 19 3 53 8 75 11 22 4 54 9 70 11 17 3 48 10 70 15 22
6 47 13 55 14 70 15 125 30 215 60 533 179 986 540 1282 1023 66 107 134 243
173 343 11 30 25 63 30 74 25 57 89 288 104 380 32 195 41 290 41 461 0 104
-3 125 -18 142 -20 22 -41 29 -73 24z m-68 -356 c1 -56 -14 -158 -42 -286 -14
-63 -28 -130 -31 -148 -3 -18 -9 -35 -14 -38 -5 -3 -9 -12 -9 -20 0 -22 -67
-197 -108 -284 -68 -142 -210 -372 -226 -367 -23 7 -38 88 -41 217 -4 155 -18
200 -80 262 -62 62 -116 76 -292 77 -166 2 -208 11 -273 58 -85 63 -122 130
-128 233 -5 96 21 170 82 234 59 61 115 87 200 95 39 3 271 6 516 5 l445 -1 1
-37z m-3808 -740 c37 -19 90 -80 109 -125 10 -24 16 -79 17 -175 3 -152 9
-175 55 -229 57 -64 83 -69 386 -71 270 -2 270 -2 328 -29 153 -70 219 -227
163 -385 -29 -80 -100 -150 -175 -172 -24 -6 -48 -1 -123 29 -364 147 -682
383 -922 684 -94 119 -186 262 -186 290 0 37 45 121 81 151 75 63 182 76 267
32z"/>
<path d="M3235 3055 c-68 -16 -109 -39 -159 -89 -146 -145 -120 -398 52 -507
172 -109 395 -43 481 141 36 79 36 192 -1 270 -67 144 -222 220 -373 185z
m192 -187 c73 -68 78 -184 10 -256 -77 -82 -212 -70 -277 25 -52 75 -25 202
51 247 68 40 163 33 216 -16z"/>
</g>
</svg>
